<svg xmlns="http://www.w3.org/2000/svg" viewBox="0 0 512 512" xmlns:v="https://vecta.io/nano"><path d="M511.987 254.928C511.408 114.037 397.027 0 256 0 114.615 0 0 114.615 0 256c0 124.893 89.443 228.879 207.764 251.442l304.223-252.514z" fill="#a3ebfe"/><path d="M92.92 314.154L78.778 356.58c-.004.005 92.478 92.486 92.478 92.486L160.322 460l47.442 47.442C223.388 510.422 239.509 512 256 512c141.385 0 256-114.615 256-256l-.014-1.072L309.02 51.962 92.92 314.154z" fill="#70e2ff"/><path d="M172.024 150.639l-98 169.741c-8.284 14.349-3.368 32.696 10.981 40.981L122.741 296c22.091 0 39.999-17.908 39.999-40l35.265-90.361-25.981-15z" fill="#01538d"/><path d="M437.976 320.38l-98-169.741-25.981 15L349.259 256c0 22.092 17.908 40 39.999 40l37.736 65.361c14.35-8.285 19.266-26.632 10.982-40.981z" fill="#01375f"/><path d="M383.202 345.082L329.381 89.471C322.227 55.503 292.096 30 256 30l-40 215 120 215h15.678C372.984 436.847 386 405.945 386 372a130.52 130.52 0 0 0-2.798-26.918z" fill="#001a31"/><path d="M256 30c-36.096 0-66.227 25.503-73.381 59.471l-53.822 255.611A130.59 130.59 0 0 0 126 372c0 33.945 13.016 64.847 34.322 88H176l80-30V30z" fill="#01375f"/><path d="M216 430l99.546 22.33C340.089 434.108 356 404.916 356 372c0-7.1-.745-14.025-2.152-20.706l-36.573-173.702H216V430z" fill="#e0f9ff"/><path d="M196.454 452.33L256 430V177.592h-61.275l-36.573 173.702C156.745 357.975 156 364.9 156 372c0 32.916 15.911 62.108 40.454 80.33z" fill="#fff"/><path d="M300.028 95.682H216L256 200c23.353 0 44.732-8.431 61.275-22.408l-17.247-81.91z" fill="#ffc65c"/><path d="M211.972 95.682l-17.246 81.91A94.61 94.61 0 0 0 256 200V95.682h-44.028z" fill="#ffdd7d"/><path d="M256 55l-20 40.683L256 155l50-50c0-27.614-22.386-50-50-50z" fill="#001a31"/><path d="M206 105l50 50V55c-27.614 0-50 22.386-50 50z" fill="#01375f"/><path d="M305.285 411.606c.014 0-9.846-58.321-9.846-58.321H226L256 460h20l28.974-29.974c.66-3.241 1.026-6.59 1.026-10.026a50.36 50.36 0 0 0-.715-8.394z" fill="#0272aa"/><path d="M216.561 353.284l-9.86 58.321c-.448 2.73-.702 5.532-.702 8.395 0 3.437.366 6.785 1.026 10.026L236 460h20V353.284h-39.439z" fill="#0391c6"/><path d="M216,360c0,22.092,17.909,40,40,40s40-17.908,40-40H216z" fill="#fff"/><path d="M256 320l-20 40 20 40 40-40c0-22.092-17.909-40-40-40z" fill="#01375f"/><path d="M216 360l40 40v-80c-22.091 0-40 17.908-40 40z" fill="#0272aa"/><path d="M206 430c-16.569 0-30 13.432-30 30h60c0-16.568-13.431-30-30-30z" fill="#001a31"/><path d="M306 430c-16.569 0-30 13.432-30 30h60c0-16.568-13.431-30-30-30z" fill="#01375f"/></svg>