<?xml version="1.0" encoding="iso-8859-1"?>
<!-- Generator: Adobe Illustrator 19.0.0, SVG Export Plug-In . SVG Version: 6.00 Build 0)  -->
<svg version="1.1" id="Layer_1" xmlns="http://www.w3.org/2000/svg" xmlns:xlink="http://www.w3.org/1999/xlink" x="0px" y="0px"
	 viewBox="0 0 512 512" style="enable-background:new 0 0 512 512;" xml:space="preserve">
<path style="fill:#A3EBFE;" d="M511.987,254.928C511.408,114.037,397.027,0,256,0C114.615,0,0,114.615,0,256
	c0,124.893,89.443,228.879,207.764,251.442L511.987,254.928z"/>
<path style="fill:#70E2FF;" d="M92.92,314.154L78.778,356.58c-0.004,0.005,92.478,92.486,92.478,92.486L160.322,460l47.442,47.442
	C223.388,510.422,239.509,512,256,512c141.385,0,256-114.615,256-256c0-0.358-0.012-0.714-0.014-1.072L309.02,51.962L92.92,314.154z
	"/>
<path style="fill:#01538D;" d="M172.024,150.639l-98,169.741c-8.284,14.349-3.368,32.696,10.981,40.981L122.741,296
	c22.091,0,39.999-17.908,39.999-40l35.265-90.361L172.024,150.639z"/>
<path style="fill:#01375F;" d="M437.976,320.38l-98-169.741l-25.981,15L349.259,256c0,22.092,17.908,40,39.999,40l37.736,65.361
	C441.344,353.076,446.26,334.729,437.976,320.38z"/>
<path style="fill:#001A31;" d="M383.202,345.082L329.381,89.471C322.227,55.503,292.096,30,256,30l-40,215l120,215h15.678
	C372.984,436.847,386,405.945,386,372C386,362.771,385.031,353.768,383.202,345.082z"/>
<path style="fill:#01375F;" d="M256,30c-36.096,0-66.227,25.503-73.381,59.471l-53.822,255.611C126.969,353.768,126,362.771,126,372
	c0,33.945,13.016,64.847,34.322,88H176l80-30V30z"/>
<path style="fill:#E0F9FF;" d="M216,430l99.546,22.33C340.089,434.108,356,404.916,356,372c0-7.1-0.745-14.025-2.152-20.706
	l-36.573-173.702H216V430z"/>
<path style="fill:#FFFFFF;" d="M196.454,452.33L256,430V177.592h-61.275l-36.573,173.702C156.745,357.975,156,364.9,156,372
	C156,404.916,171.911,434.108,196.454,452.33z"/>
<path style="fill:#FFC65C;" d="M300.028,95.682H216L256,200c23.353,0,44.732-8.431,61.275-22.408L300.028,95.682z"/>
<path style="fill:#FFDD7D;" d="M211.972,95.682l-17.246,81.91C211.268,191.569,232.648,200,256,200V95.682H211.972z"/>
<path style="fill:#001A31;" d="M256,55l-20,40.683L256,155l50-50C306,77.386,283.614,55,256,55z"/>
<path style="fill:#01375F;" d="M206,105l50,50V55C228.386,55,206,77.386,206,105z"/>
<path style="fill:#0272AA;" d="M305.285,411.606c0.014,0-9.846-58.321-9.846-58.321H226L256,460h20l28.974-29.974
	c0.66-3.241,1.026-6.59,1.026-10.026C306,417.138,305.746,414.336,305.285,411.606z"/>
<path style="fill:#0391C6;" d="M216.561,353.284l-9.86,58.321c-0.448,2.73-0.702,5.532-0.702,8.395
	c0,3.437,0.366,6.785,1.026,10.026L236,460h20V353.284H216.561z"/>
<path style="fill:#FFFFFF;" d="M216,360c0,22.092,17.909,40,40,40s40-17.908,40-40H216z"/>
<path style="fill:#01375F;" d="M256,320l-20,40l20,40l40-40C296,337.908,278.091,320,256,320z"/>
<path style="fill:#0272AA;" d="M216,360l40,40v-80C233.909,320,216,337.908,216,360z"/>
<path style="fill:#001A31;" d="M206,430c-16.569,0-30,13.432-30,30h60C236,443.432,222.569,430,206,430z"/>
<path style="fill:#01375F;" d="M306,430c-16.569,0-30,13.432-30,30h60C336,443.432,322.569,430,306,430z"/>
<g>
</g>
<g>
</g>
<g>
</g>
<g>
</g>
<g>
</g>
<g>
</g>
<g>
</g>
<g>
</g>
<g>
</g>
<g>
</g>
<g>
</g>
<g>
</g>
<g>
</g>
<g>
</g>
<g>
</g>
</svg>
